# xmcd
#
# Track frame offsets: 
#        150
#        13238
#        24860
#        33466
#        46861
#        59744
#        70760
#        83218
#        95108
#        107751
#        117823
#        128449
#        140510
#        152627
#        163354
#        173621
#        184550
#        198572
#        212535
#        231534
#        243912
#        264928
#        275860
#        289885
#        304798
#
# Disc length: 4214 seconds
#
# Revision: 0
# Processed by: cddbd v1.5.2PL0 Copyright (c) Steve Scherf et al.
# Submitted via: ExactAudioCopy v0.99pb3
#
DISCID=68107419
DTITLE=Bill Monroe - Gotta Travel On - An Introduction to Bill Monroe 
DTITLE=and the Bluegrass Boys
DYEAR=2003
DGENRE=Bluegrass
TTITLE0=My Seet Blue Eyed Darlin'
TTITLE1=Gotta Travel On
TTITLE2=Scotland
TTITLE3=Cryin' Holy Unto the Lord
TTITLE4=I'm Blue I'm Lonesome
TTITLE5=I'm On My Way to the Old Home
TTITLE6=Uncle Pen
TTITLE7=Raw Hide
TTITLE8=On and On
TTITLE9=White House Blues
TTITLE10=Wheel Hoss
TTITLE11=Roanoke
TTITLE12=Blue Moon of Kentucky
TTITLE13=A Good Woman's Love
TTITLE14=Big Mon
TTITLE15=Lonesome Road Blues
TTITLE16=I'm Going Back to Old Kentucky
TTITLE17=Big Sandy River
TTITLE18=Kentucky Mandolin
TTITLE19=With Body and Soul
TTITLE20=Kentucky Waltz
TTITLE21=Southern Flavor
TTITLE22=Fiddler Roll Call - Down Yonder - Live
TTITLE23=I'm Working on a Building
TTITLE24=My Last Days on Earth
EXTD=
EXTT0=
EXTT1=
EXTT2=
EXTT3=
EXTT4=
EXTT5=
EXTT6=
EXTT7=
EXTT8=
EXTT9=
EXTT10=
EXTT11=
EXTT12=
EXTT13=
EXTT14=
EXTT15=
EXTT16=
EXTT17=
EXTT18=
EXTT19=
EXTT20=
EXTT21=
EXTT22=
EXTT23=
EXTT24=
PLAYORDER=
